# xmcd CD database file
# Copyright (C) 1993-1998 Ti Kan
#
# Track frame offsets:
#  150
#  15702
#  30530
#  61327
#
# Disc length: 1033 seconds
#
# Revision: 1
# Processed by: cddbd v1.4b41PL1 Copyright (c) Steve Scherf et al.
# Submitted via: CDWizzard Release:4.32
#
DISCID=28040704
DTITLE=imani coppola - I'm a tree
DYEAR=1900
DGENRE=
TTITLE0=radio mix
TTITLE1=the soul kitchen mix
TTITLE2=a treee grows in spanish harlem
TTITLE3=lord tom algae mix
EXTD=
EXTT0=
EXTT1=
EXTT2=
EXTT3=
PLAYORDER=
